<svg width="14" height="8" viewBox="0 0 14 8" fill="none" xmlns="http://www.w3.org/2000/svg">
<path d="M7.00003 7.63639C6.91645 7.63648 6.83368 7.62005 6.75647 7.58805C6.67926 7.55605 6.60914 7.50912 6.55012 7.44994L0.186494 1.08631C-0.0621647 0.837652 -0.0621647 0.434994 0.186494 0.186494C0.435153 -0.0620056 0.837811 -0.0621647 1.08631 0.186494L7.00003 6.10021L12.9137 0.186494C13.1624 -0.0621647 13.5651 -0.0621647 13.8136 0.186494C14.0621 0.435153 14.0622 0.837811 13.8136 1.08631L7.44994 7.44994C7.39092 7.50912 7.3208 7.55605 7.24359 7.58805C7.16638 7.62005 7.08361 7.63648 7.00003 7.63639Z" fill="white"/>
</svg>
