<svg width="60" height="60" viewBox="0 0 60 60" fill="none" xmlns="http://www.w3.org/2000/svg">
<g clip-path="url(#clip0_1_120)">
<path d="M30.0002 0C46.5686 0 60 13.4314 60 29.9998C60 46.5682 46.5686 60.0001 30.0002 60.0001C13.4318 60.0001 -0.000141144 46.5682 -0.000141144 29.9998C0.0185585 13.439 13.4388 0.0185625 30.0002 0ZM30.0002 56.9998C44.9119 56.9998 57.0002 44.9117 57.0002 29.9998C57.0002 15.0881 44.9119 2.99981 30.0002 2.99981C15.0883 2.99981 3.00023 15.0881 3.00023 29.9998C3.01725 44.9043 15.0957 56.9828 30.0002 56.9998Z" fill="white"/>
<path d="M33.5126 18.3708C34.1366 17.8252 35.0841 17.889 35.6296 18.5126C36.1745 19.1365 36.1108 20.0841 35.4873 20.6295L24.7778 29.9998L35.4878 39.3706C36.1119 39.9161 36.175 40.8636 35.6301 41.487C35.0846 42.1111 34.1371 42.1748 33.513 41.6293L21.5132 31.1292C21.3522 30.9883 21.2231 30.8147 21.1347 30.6199C21.0463 30.4251 21.0006 30.2136 21.0006 29.9997C21.0006 29.7858 21.0463 29.5744 21.1347 29.3796C21.2231 29.1848 21.3522 29.0111 21.5132 28.8703L33.5126 18.3708Z" fill="white"/>
</g>
<defs>
<clipPath id="clip0_1_120">
<rect width="60" height="60" fill="white" transform="matrix(-1 0 0 1 60 0)"/>
</clipPath>
</defs>
</svg>
