<svg width="30" height="30" viewBox="0 0 30 30" fill="none" xmlns="http://www.w3.org/2000/svg">
<path d="M14.9992 0C8.01793 0 1.78963 5.01788 0.329255 11.8508C-0.400361 15.265 0.0911463 18.8955 1.71893 21.9848C3.28556 24.9579 5.85393 27.3608 8.9268 28.7226C12.1231 30.1394 15.7926 30.3863 19.1521 29.4201C22.3932 28.4883 25.2669 26.4431 27.2234 23.6978C31.3141 17.9583 30.7671 9.89626 25.9545 4.7534C23.1339 1.73938 19.1277 0 14.9992 0ZM22.1956 15.8027L18.1061 19.9909C17.0707 21.0515 15.4341 19.4447 16.4653 18.3891L18.5288 16.2759H8.74984C8.05539 16.2759 7.47598 15.6961 7.47598 15.002C7.47598 14.308 8.05577 13.7282 8.74984 13.7282H18.4798L16.3755 11.6242C15.3298 10.5785 16.951 8.95681 17.9967 10.0025L22.186 14.1914C22.3994 14.4046 22.5201 14.6934 22.5219 14.9951C22.5237 15.2968 22.4064 15.587 22.1956 15.8027Z" fill="white"/>
</svg>
