<svg width="111" height="48" viewBox="0 0 111 48" fill="none" xmlns="http://www.w3.org/2000/svg">
<path d="M0.368182 37V0.927273H4.73636V33.125H21.5045V37H0.368182ZM38.6955 37.5636C36.253 37.5636 34.11 36.9824 32.2665 35.8199C30.4347 34.6574 29.0021 33.0311 27.9687 30.9409C26.9472 28.8508 26.4364 26.4083 26.4364 23.6136C26.4364 20.7955 26.9472 18.3354 27.9687 16.2335C29.0021 14.1316 30.4347 12.4994 32.2665 11.3369C34.11 10.1744 36.253 9.59318 38.6955 9.59318C41.1379 9.59318 43.275 10.1744 45.1068 11.3369C46.9504 12.4994 48.383 14.1316 49.4045 16.2335C50.4379 18.3354 50.9545 20.7955 50.9545 23.6136C50.9545 26.4083 50.4379 28.8508 49.4045 30.9409C48.383 33.0311 46.9504 34.6574 45.1068 35.8199C43.275 36.9824 41.1379 37.5636 38.6955 37.5636ZM38.6955 33.8295C40.5508 33.8295 42.0773 33.354 43.275 32.4028C44.4727 31.4517 45.3593 30.2011 45.9347 28.6511C46.51 27.1011 46.7977 25.422 46.7977 23.6136C46.7977 21.8053 46.51 20.1203 45.9347 18.5585C45.3593 16.9968 44.4727 15.7345 43.275 14.7716C42.0773 13.8087 40.5508 13.3273 38.6955 13.3273C36.8402 13.3273 35.3136 13.8087 34.1159 14.7716C32.9182 15.7345 32.0316 16.9968 31.4562 18.5585C30.8809 20.1203 30.5932 21.8053 30.5932 23.6136C30.5932 25.422 30.8809 27.1011 31.4562 28.6511C32.0316 30.2011 32.9182 31.4517 34.1159 32.4028C35.3136 33.354 36.8402 33.8295 38.6955 33.8295ZM68.2203 47.7091C66.2124 47.7091 64.4862 47.4508 63.0419 46.9341C61.5976 46.4292 60.394 45.7598 59.4311 44.9261C58.48 44.1042 57.7226 43.2235 57.1589 42.2841L60.4703 39.9591C60.8461 40.4523 61.3216 41.0159 61.897 41.65C62.4724 42.2958 63.2591 42.8536 64.2572 43.3233C65.2671 43.8047 66.5881 44.0455 68.2203 44.0455C70.4044 44.0455 72.2069 43.517 73.6277 42.4602C75.0485 41.4034 75.7589 39.7477 75.7589 37.4932V31.9977H75.4067C75.1014 32.4909 74.6669 33.1015 74.1033 33.8295C73.5514 34.5458 72.7529 35.1858 71.7078 35.7494C70.6745 36.3013 69.2771 36.5773 67.5158 36.5773C65.3317 36.5773 63.3707 36.0606 61.6328 35.0273C59.9067 33.9939 58.5387 32.4909 57.5288 30.5182C56.5307 28.5455 56.0317 26.15 56.0317 23.3318C56.0317 20.5606 56.519 18.1475 57.4936 16.0926C58.4682 14.0259 59.8245 12.429 61.5624 11.3017C63.3002 10.1627 65.3082 9.59318 67.5862 9.59318C69.3476 9.59318 70.7449 9.88674 71.7783 10.4739C72.8233 11.0492 73.6218 11.7068 74.1737 12.4466C74.7374 13.1746 75.1718 13.7735 75.4771 14.2432H75.8999V9.94545H79.9158V37.775C79.9158 40.1 79.3874 41.9905 78.3305 43.4466C77.2855 44.9144 75.8764 45.9888 74.1033 46.6699C72.3419 47.3627 70.3809 47.7091 68.2203 47.7091ZM68.0794 32.8432C69.7468 32.8432 71.1559 32.4616 72.3067 31.6983C73.4574 30.935 74.3322 29.8371 74.9311 28.4045C75.53 26.972 75.8294 25.2576 75.8294 23.2614C75.8294 21.3121 75.5358 19.5919 74.9487 18.1006C74.3616 16.6093 73.4927 15.4409 72.3419 14.5955C71.1911 13.75 69.7703 13.3273 68.0794 13.3273C66.318 13.3273 64.8502 13.7735 63.676 14.6659C62.5135 15.5583 61.6387 16.7561 61.0516 18.2591C60.4762 19.7621 60.1885 21.4295 60.1885 23.2614C60.1885 25.1402 60.4821 26.8017 61.0692 28.246C61.668 29.6786 62.5487 30.8059 63.7112 31.6278C64.8855 32.4381 66.3415 32.8432 68.0794 32.8432ZM98.5158 37.5636C96.0733 37.5636 93.9303 36.9824 92.0868 35.8199C90.255 34.6574 88.8224 33.0311 87.7891 30.9409C86.7675 28.8508 86.2567 26.4083 86.2567 23.6136C86.2567 20.7955 86.7675 18.3354 87.7891 16.2335C88.8224 14.1316 90.255 12.4994 92.0868 11.3369C93.9303 10.1744 96.0733 9.59318 98.5158 9.59318C100.958 9.59318 103.095 10.1744 104.927 11.3369C106.771 12.4994 108.203 14.1316 109.225 16.2335C110.258 18.3354 110.775 20.7955 110.775 23.6136C110.775 26.4083 110.258 28.8508 109.225 30.9409C108.203 33.0311 106.771 34.6574 104.927 35.8199C103.095 36.9824 100.958 37.5636 98.5158 37.5636ZM98.5158 33.8295C100.371 33.8295 101.898 33.354 103.095 32.4028C104.293 31.4517 105.18 30.2011 105.755 28.6511C106.33 27.1011 106.618 25.422 106.618 23.6136C106.618 21.8053 106.33 20.1203 105.755 18.5585C105.18 16.9968 104.293 15.7345 103.095 14.7716C101.898 13.8087 100.371 13.3273 98.5158 13.3273C96.6605 13.3273 95.1339 13.8087 93.9362 14.7716C92.7385 15.7345 91.8519 16.9968 91.2766 18.5585C90.7012 20.1203 90.4135 21.8053 90.4135 23.6136C90.4135 25.422 90.7012 27.1011 91.2766 28.6511C91.8519 30.2011 92.7385 31.4517 93.9362 32.4028C95.1339 33.354 96.6605 33.8295 98.5158 33.8295Z" fill="black"/>
</svg>
