<svg width="60" height="60" viewBox="0 0 60 60" fill="none" xmlns="http://www.w3.org/2000/svg">
<g clip-path="url(#clip0_1_116)">
<path d="M29.9998 0C13.4314 0 0 13.4314 0 29.9998C0 46.5682 13.4314 60.0001 29.9998 60.0001C46.5682 60.0001 60.0001 46.5682 60.0001 29.9998C59.9814 13.439 46.5612 0.0185625 29.9998 0ZM29.9998 56.9998C15.0881 56.9998 2.99981 44.9117 2.99981 29.9998C2.99981 15.0881 15.0881 2.99981 29.9998 2.99981C44.9117 2.99981 56.9998 15.0881 56.9998 29.9998C56.9828 44.9043 44.9043 56.9828 29.9998 56.9998Z" fill="white"/>
<path d="M26.4874 18.3708C25.8634 17.8252 24.9159 17.889 24.3704 18.5126C23.8255 19.1365 23.8892 20.0841 24.5127 20.6295L35.2222 29.9998L24.5122 39.3706C23.8881 39.9161 23.825 40.8636 24.3699 41.487C24.9154 42.1111 25.8629 42.1748 26.487 41.6293L38.4868 31.1292C38.6478 30.9883 38.7769 30.8147 38.8653 30.6199C38.9537 30.4251 38.9994 30.2136 38.9994 29.9997C38.9994 29.7858 38.9537 29.5744 38.8653 29.3796C38.7769 29.1848 38.6478 29.0111 38.4868 28.8703L26.4874 18.3708Z" fill="white"/>
</g>
<defs>
<clipPath id="clip0_1_116">
<rect width="60" height="60" fill="white"/>
</clipPath>
</defs>
</svg>
